<?xml version="1.0" encoding="UTF-8" standalone="no"?>
<!DOCTYPE svg PUBLIC "-//W3C//DTD SVG 1.1//EN"
 "http://www.w3.org/Graphics/SVG/1.1/DTD/svg11.dtd">
<!-- Generated by graphviz version 2.40.1 (20161225.0304)
 -->
<!-- Title: G Pages: 1 -->
<svg width="760pt" height="584pt"
 viewBox="0.00 0.00 759.97 584.00" xmlns="http://www.w3.org/2000/svg" xmlns:xlink="http://www.w3.org/1999/xlink">
<g id="graph0" class="graph" transform="scale(1 1) rotate(0) translate(4 580)">
<title>G</title>
<polygon fill="#ffffff" stroke="transparent" points="-4,4 -4,-580 755.972,-580 755.972,4 -4,4"/>
<!-- A0 -->
<g id="node1" class="node">
<title>A0</title>
<polygon fill="#fff8dc" stroke="#000000" points="353.958,-56 .014,-56 .014,0 359.958,0 359.958,-50 353.958,-56"/>
<polyline fill="none" stroke="#000000" points="353.958,-56 353.958,-50 "/>
<polyline fill="none" stroke="#000000" points="359.958,-50 353.958,-50 "/>
<text text-anchor="middle" x="179.986" y="-43" font-family="Helvetica,sans-Serif" font-size="10.00" fill="#000000">a yuml diagram of</text>
<text text-anchor="middle" x="179.986" y="-31" font-family="Helvetica,sans-Serif" font-size="10.00" fill="#000000">the loan database!</text>
<text text-anchor="middle" x="179.986" y="-19" font-family="Helvetica,sans-Serif" font-size="10.00" fill="#000000">VS Marketplace Link:</text>
<text text-anchor="middle" x="179.986" y="-7" font-family="Helvetica,sans-Serif" font-size="10.00" fill="#000000">https://marketplace.visualstudio.com/items?itemName=JaimeOlivares.yuml</text>
</g>
<!-- A1 -->
<g id="node2" class="node">
<title>A1</title>
<polygon fill="none" stroke="#000000" points="410.472,-247 410.472,-279 477.472,-279 477.472,-247 410.472,-247"/>
<text text-anchor="start" x="424.5255" y="-260" font-family="Helvetica,sans-Serif" font-size="10.00" fill="#000000">alliances</text>
<polygon fill="none" stroke="#000000" points="410.472,-167 410.472,-247 477.472,-247 477.472,-167 410.472,-167"/>
<text text-anchor="start" x="420.356" y="-228" font-family="Helvetica,sans-Serif" font-size="10.00" fill="#000000">shortname</text>
<text text-anchor="start" x="425.081" y="-216" font-family="Helvetica,sans-Serif" font-size="10.00" fill="#000000">fullname</text>
<text text-anchor="start" x="433.139" y="-204" font-family="Helvetica,sans-Serif" font-size="10.00" fill="#000000">color</text>
<text text-anchor="start" x="434.524" y="-192" font-family="Helvetica,sans-Serif" font-size="10.00" fill="#000000">logo</text>
<text text-anchor="start" x="428.415" y="-180" font-family="Helvetica,sans-Serif" font-size="10.00" fill="#000000">charter</text>
</g>
<!-- A3 -->
<g id="node4" class="node">
<title>A3</title>
<polygon fill="none" stroke="#000000" points="527.472,-172 527.472,-204 648.472,-204 648.472,-172 527.472,-172"/>
<text text-anchor="start" x="575.7485" y="-185" font-family="Helvetica,sans-Serif" font-size="10.00" fill="#000000">users</text>
<polygon fill="none" stroke="#000000" points="527.472,-56 527.472,-172 648.472,-172 648.472,-56 527.472,-56"/>
<text text-anchor="start" x="584.083" y="-153" font-family="Helvetica,sans-Serif" font-size="10.00" fill="#000000">id</text>
<text text-anchor="start" x="581.3035" y="-141" font-family="Helvetica,sans-Serif" font-size="10.00" fill="#000000">ign</text>
<text text-anchor="start" x="563.7965" y="-129" font-family="Helvetica,sans-Serif" font-size="10.00" fill="#000000">login_code</text>
<text text-anchor="start" x="537.3965" y="-117" font-family="Helvetica,sans-Serif" font-size="10.00" fill="#000000">login_code_created_at</text>
<text text-anchor="start" x="563.8005" y="-105" font-family="Helvetica,sans-Serif" font-size="10.00" fill="#000000">screeps_id</text>
<text text-anchor="start" x="571.0255" y="-93" font-family="Helvetica,sans-Serif" font-size="10.00" fill="#000000">alliance</text>
<text text-anchor="start" x="581.583" y="-81" font-family="Helvetica,sans-Serif" font-size="10.00" fill="#000000">gcl</text>
<text text-anchor="start" x="574.3595" y="-69" font-family="Helvetica,sans-Serif" font-size="10.00" fill="#000000">power</text>
</g>
<!-- A1&#45;&gt;A3 -->
<g id="edge1" class="edge">
<title>A1&#45;&gt;A3</title>
<path fill="none" stroke="#000000" d="M487.3391,-194.6692C497.1644,-188.3237 507.8191,-181.4425 518.3898,-174.6156"/>
<polygon fill="none" stroke="#000000" points="487.3141,-194.6853 484.444,-201.3006 477.2336,-201.1956 480.1037,-194.5803 487.3141,-194.6853"/>
<polygon fill="#000000" stroke="#000000" points="526.8318,-169.1635 520.8728,-178.3689 522.6316,-171.8761 518.4314,-174.5888 518.4314,-174.5888 518.4314,-174.5888 522.6316,-171.8761 515.99,-170.8086 526.8318,-169.1635 526.8318,-169.1635"/>
<text text-anchor="middle" x="516.1907" y="-183.0977" font-family="Helvetica,sans-Serif" font-size="10.00" fill="#000000">0..*</text>
<text text-anchor="middle" x="487.8747" y="-181.2614" font-family="Helvetica,sans-Serif" font-size="10.00" fill="#000000">1</text>
</g>
<!-- A2 -->
<g id="node3" class="node">
<title>A2</title>
<polygon fill="none" stroke="#000000" points="701.972,-154 701.972,-186 748.972,-186 748.972,-154 701.972,-154"/>
<text text-anchor="start" x="711.584" y="-167" font-family="Helvetica,sans-Serif" font-size="10.00" fill="#000000">rooms</text>
<polygon fill="none" stroke="#000000" points="701.972,-74 701.972,-154 748.972,-154 748.972,-74 701.972,-74"/>
<text text-anchor="start" x="712.969" y="-135" font-family="Helvetica,sans-Serif" font-size="10.00" fill="#000000">name</text>
<text text-anchor="start" x="711.585" y="-123" font-family="Helvetica,sans-Serif" font-size="10.00" fill="#000000">import</text>
<text text-anchor="start" x="715.194" y="-111" font-family="Helvetica,sans-Serif" font-size="10.00" fill="#000000">level</text>
<text text-anchor="start" x="711.8595" y="-99" font-family="Helvetica,sans-Serif" font-size="10.00" fill="#000000">owner</text>
<text text-anchor="start" x="712.969" y="-87" font-family="Helvetica,sans-Serif" font-size="10.00" fill="#000000">shard</text>
</g>
<!-- A3&#45;&gt;A2 -->
<g id="edge2" class="edge">
<title>A3&#45;&gt;A2</title>
<path fill="none" stroke="#000000" d="M660.4795,-130C669.8933,-130 679.2002,-130 687.6906,-130"/>
<polygon fill="none" stroke="#000000" points="660.1818,-130.0001 654.1817,-134 648.1818,-130 654.1818,-126 660.1818,-130.0001"/>
<polygon fill="#000000" stroke="#000000" points="697.9551,-130 687.9552,-134.5001 692.9551,-130 687.9551,-130.0001 687.9551,-130.0001 687.9551,-130.0001 692.9551,-130 687.9551,-125.5001 697.9551,-130 697.9551,-130"/>
<text text-anchor="middle" x="679.829" y="-135.4524" font-family="Helvetica,sans-Serif" font-size="10.00" fill="#000000">0..*</text>
<text text-anchor="middle" x="666.3079" y="-118.5476" font-family="Helvetica,sans-Serif" font-size="10.00" fill="#000000">1</text>
</g>
<!-- A4 -->
<g id="node5" class="node">
<title>A4</title>
<polygon fill="none" stroke="#000000" points="139.986,-260 139.986,-292 220.986,-292 220.986,-260 139.986,-260"/>
<text text-anchor="start" x="149.9315" y="-273" font-family="Helvetica,sans-Serif" font-size="10.00" fill="#000000">room_imports</text>
<polygon fill="none" stroke="#000000" points="139.986,-204 139.986,-260 220.986,-260 220.986,-204 139.986,-204"/>
<text text-anchor="start" x="176.597" y="-241" font-family="Helvetica,sans-Serif" font-size="10.00" fill="#000000">id</text>
<text text-anchor="start" x="158.2555" y="-229" font-family="Helvetica,sans-Serif" font-size="10.00" fill="#000000">started_at</text>
<text text-anchor="start" x="167.148" y="-217" font-family="Helvetica,sans-Serif" font-size="10.00" fill="#000000">status</text>
</g>
<!-- A5 -->
<g id="node6" class="node">
<title>A5</title>
<polygon fill="none" stroke="#000000" points="131.986,-366 131.986,-398 227.986,-398 227.986,-366 131.986,-366"/>
<text text-anchor="start" x="141.9275" y="-379" font-family="Helvetica,sans-Serif" font-size="10.00" fill="#000000">rankings_imports</text>
<polygon fill="none" stroke="#000000" points="131.986,-310 131.986,-366 227.986,-366 227.986,-310 131.986,-310"/>
<text text-anchor="start" x="176.097" y="-347" font-family="Helvetica,sans-Serif" font-size="10.00" fill="#000000">id</text>
<text text-anchor="start" x="157.7555" y="-335" font-family="Helvetica,sans-Serif" font-size="10.00" fill="#000000">started_at</text>
<text text-anchor="start" x="166.648" y="-323" font-family="Helvetica,sans-Serif" font-size="10.00" fill="#000000">status</text>
</g>
<!-- A6 -->
<g id="node7" class="node">
<title>A6</title>
<polygon fill="none" stroke="#000000" points="131.986,-544 131.986,-576 227.986,-576 227.986,-544 131.986,-544"/>
<text text-anchor="start" x="161.094" y="-557" font-family="Helvetica,sans-Serif" font-size="10.00" fill="#000000">rankings</text>
<polygon fill="none" stroke="#000000" points="131.986,-416 131.986,-544 227.986,-544 227.986,-416 131.986,-416"/>
<text text-anchor="start" x="163.0395" y="-525" font-family="Helvetica,sans-Serif" font-size="10.00" fill="#000000">alliance</text>
<text text-anchor="start" x="166.099" y="-513" font-family="Helvetica,sans-Serif" font-size="10.00" fill="#000000">import</text>
<text text-anchor="start" x="153.871" y="-501" font-family="Helvetica,sans-Serif" font-size="10.00" fill="#000000">alliance_gcl</text>
<text text-anchor="start" x="149.146" y="-489" font-family="Helvetica,sans-Serif" font-size="10.00" fill="#000000">combined_gcl</text>
<text text-anchor="start" x="174.712" y="-477" font-family="Helvetica,sans-Serif" font-size="10.00" fill="#000000">rcl</text>
<text text-anchor="start" x="163.038" y="-465" font-family="Helvetica,sans-Serif" font-size="10.00" fill="#000000">spawns</text>
<text text-anchor="start" x="159.154" y="-453" font-family="Helvetica,sans-Serif" font-size="10.00" fill="#000000">members</text>
<text text-anchor="start" x="146.6475" y="-441" font-family="Helvetica,sans-Serif" font-size="10.00" fill="#000000">alliance_power</text>
<text text-anchor="start" x="141.9225" y="-429" font-family="Helvetica,sans-Serif" font-size="10.00" fill="#000000">combined_power</text>
</g>
<!-- A7 -->
<g id="node8" class="node">
<title>A7</title>
<polygon fill="none" stroke="#000000" points="136.986,-154 136.986,-186 223.986,-186 223.986,-154 136.986,-154"/>
<text text-anchor="start" x="146.5925" y="-167" font-family="Helvetica,sans-Serif" font-size="10.00" fill="#000000">alliance_invites</text>
<polygon fill="none" stroke="#000000" points="136.986,-74 136.986,-154 223.986,-154 223.986,-74 136.986,-74"/>
<text text-anchor="start" x="176.597" y="-135" font-family="Helvetica,sans-Serif" font-size="10.00" fill="#000000">id</text>
<text text-anchor="start" x="163.5395" y="-123" font-family="Helvetica,sans-Serif" font-size="10.00" fill="#000000">alliance</text>
<text text-anchor="start" x="164.089" y="-111" font-family="Helvetica,sans-Serif" font-size="10.00" fill="#000000">sent_at</text>
<text text-anchor="start" x="164.094" y="-99" font-family="Helvetica,sans-Serif" font-size="10.00" fill="#000000">user_id</text>
<text text-anchor="start" x="165.2035" y="-87" font-family="Helvetica,sans-Serif" font-size="10.00" fill="#000000">sender</text>
</g>
<!-- A7&#45;&gt;A1 -->
<g id="edge5" class="edge">
<title>A7&#45;&gt;A1</title>
<path fill="none" stroke="#000000" d="M235.0174,-149.4239C284.2113,-166.7874 355.3051,-191.8806 400.4443,-207.813"/>
<polygon fill="none" stroke="#000000" points="234.8112,-149.3512 227.8219,-151.126 223.4954,-145.3571 230.4846,-143.5822 234.8112,-149.3512"/>
<polygon fill="#000000" stroke="#000000" points="409.9425,-211.1654 399.0149,-212.0804 405.2276,-209.5012 400.5127,-207.837 400.5127,-207.837 400.5127,-207.837 405.2276,-209.5012 402.0104,-203.5936 409.9425,-211.1654 409.9425,-211.1654"/>
<text text-anchor="middle" x="390.0366" y="-210.1029" font-family="Helvetica,sans-Serif" font-size="10.00" fill="#000000">1</text>
<text text-anchor="middle" x="243.4013" y="-140.4196" font-family="Helvetica,sans-Serif" font-size="10.00" fill="#000000">0..1</text>
</g>
<!-- A7&#45;&gt;A3 -->
<g id="edge3" class="edge">
<title>A7&#45;&gt;A3</title>
<path fill="none" stroke="#000000" d="M235.7389,-125.1849C308.6418,-122.7679 436.4358,-122.6153 516.2682,-124.7272"/>
<polygon fill="none" stroke="#000000" points="235.5861,-125.1904 229.7365,-129.4073 223.5941,-125.6296 229.4437,-121.4127 235.5861,-125.1904"/>
<polygon fill="#000000" stroke="#000000" points="526.7218,-125.0253 516.5975,-129.2383 521.7238,-124.8827 516.7258,-124.7401 516.7258,-124.7401 516.7258,-124.7401 521.7238,-124.8827 516.8542,-120.242 526.7218,-125.0253 526.7218,-125.0253"/>
<text text-anchor="middle" x="241.3988" y="-113.5196" font-family="Helvetica,sans-Serif" font-size="10.00" fill="#000000">1</text>
</g>
<!-- A7&#45;&gt;A3 -->
<g id="edge4" class="edge">
<title>A7&#45;&gt;A3</title>
<path fill="none" stroke="#000000" d="M235.7389,-134.8151C308.6418,-137.2321 436.4358,-137.3847 516.2682,-135.2728"/>
<polygon fill="none" stroke="#000000" points="235.5861,-134.8096 229.4437,-138.5873 223.5941,-134.3704 229.7365,-130.5927 235.5861,-134.8096"/>
<polygon fill="#000000" stroke="#000000" points="526.7218,-134.9747 516.8542,-139.758 521.7238,-135.1173 516.7258,-135.2599 516.7258,-135.2599 516.7258,-135.2599 521.7238,-135.1173 516.5975,-130.7617 526.7218,-134.9747 526.7218,-134.9747"/>
<text text-anchor="middle" x="242.0175" y="-123.587" font-family="Helvetica,sans-Serif" font-size="10.00" fill="#000000">1</text>
</g>
</g>
</svg>
